<svg xmlns="http://www.w3.org/2000/svg" viewBox="0 0 300 189"><defs><style>.cls-1{fill:#1d1d1b;}.cls-2{fill:#b21f1c;}.cls-3{fill:#fff;}.cls-4,.cls-5{fill:none;}.cls-5{stroke:#fff;stroke-miterlimit:10;stroke-width:2px;}</style></defs><title>Resurs 1</title><g id="Lager_2" data-name="Lager 2"><g id="Lager_2-2" data-name="Lager 2"><circle class="cls-1" cx="150" cy="94.5" r="94.5"/><circle class="cls-2" cx="150" cy="94.5" r="31.09"/><circle class="cls-3" cx="150" cy="94.5" r="3.7"/><path class="cls-3" d="M100.31,44.78H95.46l-27,46.72h5.81l20.3-35.06L94.6,91.5h5.78Zm.08,52.72H94.61l0,28.09h5.78ZM65,97.5l-5.63,9.73L53.7,97.5h-6l10.09,17.35h2.89l10-17.35Zm-46.73,0v28.09H24V97.5Zm5-52.72h-5V91.5H24V56.67L44.26,91.5h6Z"/><path class="cls-3" d="M199.69,97.5v28.09h5.77V97.5Zm5-52.72h-5V91.5h5.77V56.67L225.71,91.5h6ZM246.42,97.5l-5.63,9.73-5.63-9.73h-6l10.09,17.35h2.88L252.22,97.5Zm35.35-52.72h-4.85l-27,46.72h5.8L276,56.44l.06,35.06h5.77Zm.07,52.72h-5.77l0,28.09h5.77Z"/><line class="cls-4" x1="18.23" y1="97.5" x2="18.23" y2="91.5"/><line class="cls-5" y1="94.5" x2="300" y2="94.5"/></g></g></svg>