<svg xmlns="http://www.w3.org/2000/svg" viewBox="0 0 191.26 170.44"><defs><style>.cls-1{fill:#b9dfdc;}</style></defs><title>Resurs 5</title><g id="Lager_2" data-name="Lager 2"><g id="Lager_2-2" data-name="Lager 2"><polygon class="cls-1" points="54.78 10.79 53.08 21.49 44.89 73.15 44.41 76.15 41.37 76.15 41.85 73.15 51.75 10.72 53.45 0.03 54.78 10.79"/><polygon class="cls-1" points="70.96 141.97 70.96 141.99 69.45 154.22 67.94 142.01 67.94 141.99 59.82 76.15 59.45 73.15 53.08 21.49 51.75 10.72 53.45 0.03 54.78 10.79 62.47 73.15 62.84 76.15 69.45 129.74 69.45 129.76 70.96 141.97"/><polygon class="cls-1" points="103.62 114.45 100.57 114.45 100.1 111.45 85.83 21.48 84.13 10.76 85.46 0 87.16 10.71 87.16 10.72 103.14 111.45 103.62 114.45"/><polygon class="cls-1" points="87.16 10.71 87.16 10.72 85.83 21.48 70.96 141.97 70.96 141.99 69.45 154.22 67.94 142.01 67.94 141.99 69.45 129.76 69.45 129.74 84.13 10.76 85.46 0 87.16 10.71"/><polygon class="cls-1" points="44.89 73.15 44.41 76.15 0 76.15 0 73.15 44.89 73.15"/><polygon class="cls-1" points="62.84 76.15 59.82 76.15 59.45 73.15 62.47 73.15 62.84 76.15"/><polygon class="cls-1" points="120.94 111.45 120.57 114.45 100.57 114.45 100.1 111.45 120.94 111.45"/><polygon class="cls-1" points="136.53 111.45 136.9 114.45 133.88 114.45 133.51 111.45 136.53 111.45"/><polygon class="cls-1" points="148.07 111.45 147.7 114.45 144.68 114.45 145.05 111.45 148.07 111.45"/><polygon class="cls-1" points="128.73 48.26 127.22 60.5 120.94 111.45 120.57 114.45 117.55 114.45 117.92 111.45 125.71 48.25 127.22 36.01 128.73 48.26"/><polygon class="cls-1" points="142.29 158.22 142.29 158.25 141.68 163.2 141.68 163.22 140.79 170.44 139.89 163.23 139.89 163.21 139.28 158.23 139.28 158.2 133.88 114.45 133.51 111.45 131.77 97.37 131.4 94.37 127.22 60.5 125.71 48.25 127.22 36.01 128.73 48.26 134.42 94.37 134.79 97.37 136.53 111.45 136.9 114.45 140.79 145.95 140.79 145.98 141.4 150.96 141.4 150.98 142.29 158.22"/><polygon class="cls-1" points="152.79 73.15 152.42 76.15 148.07 111.45 147.7 114.45 142.29 158.22 142.29 158.25 141.68 163.2 141.68 163.22 140.79 170.44 139.89 163.23 139.89 163.21 139.28 158.23 139.28 158.2 140.17 150.99 140.17 150.97 140.79 145.98 140.79 145.95 144.68 114.45 145.05 111.45 149.4 76.15 149.77 73.15 152.79 73.15"/><polygon class="cls-1" points="191.26 73.15 190.78 76.15 149.4 76.15 149.77 73.15 191.26 73.15"/></g></g></svg>