<svg xmlns="http://www.w3.org/2000/svg" viewBox="0 0 280.37 147.9"><defs><style>.cls-1,.cls-2{fill:#fff;}.cls-2{font-size:35.14px;font-family:Montserrat-Light, Montserrat;font-weight:300;}.cls-3{letter-spacing:0em;}.cls-4{letter-spacing:0em;}</style></defs><title>Resurs 1</title><g id="Lager_2" data-name="Lager 2"><g id="Lager_1-2" data-name="Lager 1"><path class="cls-1" d="M85.54,127.11,78.78,86.75l-.57-3.43L64.26,0l-14,83.32-.58,3.43h3.48l.58-3.43L64.26,20.8,74.73,83.32l.58,3.43L83.8,137.5l1.74,10.4,1.74-10.39Z"/><path class="cls-1" d="M125.34,110.53,106.83,0,88.32,110.53,87.74,114l-2.2,13.14L83.8,137.5l1.74,10.4,1.74-10.39,4-23.54.57-3.44,15-89.73,15,89.73.58,3.44h3.48Z"/><polygon class="cls-1" points="53.79 83.32 53.21 86.75 0 86.75 0 83.32 53.79 83.32"/><polygon class="cls-1" points="78.78 86.75 75.31 86.75 74.73 83.32 78.21 83.32 78.78 86.75"/><polygon class="cls-1" points="91.8 110.53 91.23 113.97 87.74 113.97 88.32 110.53 91.8 110.53"/><polygon class="cls-1" points="255.4 111.45 255.4 114.2 123.42 114.2 121.86 111.45 255.4 111.45"/><text class="cls-2" transform="translate(130.92 109.19)">AR<tspan class="cls-3" x="50.08" y="0">C</tspan><tspan class="cls-4" x="75.21" y="0">US</tspan></text><path class="cls-1" d="M247.05,75.35c-.23,0-.46,0-.69,0s-.46,0-.69,0v1.37l.69,0,.69,0c8.83.5,15.9,10.66,15.9,23.08s-7.07,22.57-15.9,23.08l-.69,0-.69,0v1.37l.69,0,.69,0c9.59-.49,17.28-11.27,17.28-24.45S256.64,75.84,247.05,75.35Z"/><path class="cls-1" d="M247.05,75.35v1.37l-.69,0-.69,0V75.35c.23,0,.46,0,.69,0S246.82,75.33,247.05,75.35Z"/><path class="cls-1" d="M246.36,122.9l.69,0v1.37l-.69,0-.69,0v-1.37Z"/><path class="cls-1" d="M253,60.36c-.36,0-.72,0-1.09,0s-.73,0-1.09,0v2.18c.36,0,.72,0,1.09,0s.73,0,1.09,0c14,.8,25.23,16.92,25.23,36.61S267,135,253,135.76c-.36,0-.72,0-1.09,0s-.73,0-1.09,0v2.18c.36,0,.72,0,1.09,0s.73,0,1.09,0c15.21-.79,27.41-17.89,27.41-38.79S268.17,61.14,253,60.36Z"/><path class="cls-1" d="M250.3,68l-.88,0-.89,0v1.77l.89,0,.88,0c11.38.65,20.48,13.74,20.48,29.72s-9.1,29.08-20.48,29.73l-.88,0-.89,0V131l.89,0,.88,0c12.35-.64,22.25-14.52,22.25-31.5S262.65,68.61,250.3,68Z"/></g></g></svg>