<svg xmlns="http://www.w3.org/2000/svg" viewBox="0 0 300 189"><defs><style>.cls-1{fill:#1d1d1b;}.cls-2{fill:#b21f1c;}.cls-3{fill:#fff;}.cls-4,.cls-5{fill:none;}.cls-5{stroke:#fff;stroke-miterlimit:10;stroke-width:2px;}</style></defs><title>Resurs 3</title><g id="Lager_2" data-name="Lager 2"><g id="Lager_2-2" data-name="Lager 2"><circle class="cls-1" cx="150" cy="94.5" r="94.5"/><circle class="cls-2" cx="150" cy="94.5" r="31.09"/><circle class="cls-3" cx="150" cy="94.5" r="3.7"/><path class="cls-3" d="M65,97.5l-5.63,9.73-3.52-6.08a93.52,93.52,0,0,0,2.11,13.7h2.8l10-17.35Zm35.43,0H94.61l0,28.09h5.78Zm-.08-52.72H95.46l-27,46.72h5.81l20.3-35.06L94.6,91.5h5.78Z"/><rect class="cls-1" x="18.23" y="97.5" width="5.78" height="28.09"/><polygon points="50.23 91.5 44.26 91.5 24.01 56.67 24.01 91.5 18.23 91.5 18.23 44.78 23.2 44.78 50.23 91.5"/><path d="M57.92,114.85h-.09L47.74,97.5h6l2.11,3.65A93.52,93.52,0,0,0,57.92,114.85Z"/><path class="cls-3" d="M199.69,97.5v28.09h5.77V97.5Zm5-52.72h-5V91.5h5.77V56.67L225.71,91.5h6Zm36.13,62.45-5.63-9.73h-6l10.09,17.35h2.79a92.81,92.81,0,0,0,2.08-13.45Z"/><polygon class="cls-1" points="281.88 125.59 276.11 125.59 276.07 97.5 281.84 97.5 281.88 125.59"/><polygon class="cls-1" points="281.83 91.5 276.06 91.5 276 56.44 255.69 91.5 249.89 91.5 276.92 44.78 281.77 44.78 281.83 91.5"/><path class="cls-1" d="M252.22,97.5l-10.05,17.35h-.09a92.81,92.81,0,0,0,2.08-13.45l2.26-3.9Z"/><line class="cls-4" x1="18.23" y1="97.5" x2="18.23" y2="91.5"/><line class="cls-5" x1="153.7" y1="94.5" x2="146.3" y2="94.5"/><path class="cls-3" d="M300,93.5v2H183.42c0-.33,0-.66,0-1s0-.67,0-1Z"/><path class="cls-3" d="M116.57,94.5c0,.34,0,.67,0,1H0v-2H116.58C116.57,93.83,116.57,94.16,116.57,94.5Z"/></g></g></svg>